<svg xmlns="http://www.w3.org/2000/svg" width="24" height="24" viewBox="0 0 24 24" fill="none" stroke="#000" stroke-width="2"><path d="M3 14m0 1a1 1 0 011-1h2a1 1 0 011 1v2a1 1 0 01-1 1H4a1 1 0 01-1-1z"/><path d="M17 14m0 1a1 1 0 011-1h2a1 1 0 011 1v2a1 1 0 01-1 1h-2a1 1 0 01-1-1z"/><path d="M10 6m0 1a1 1 0 011-1h2a1 1 0 011 1v2a1 1 0 01-1 1h-2a1 1 0 01-1-1z"/><path d="M10 8.5A6 6 0 005 14"/><path d="M14 8.5a6 6 0 015 5.5"/><path d="M10 8H4"/><path d="M20 8h-6"/><path d="M3 8M2 8a1 1 0 102 0A1 1 0 102 8"/><path d="M21 8m-1 0a1 1 0 102 0 1 1 0 10-2 0"/></svg>